<?xml version="1.0" encoding="iso-8859-1"?>
<!-- Generator: Adobe Illustrator 19.0.0, SVG Export Plug-In . SVG Version: 6.00 Build 0)  -->
<svg xmlns="http://www.w3.org/2000/svg" xmlns:xlink="http://www.w3.org/1999/xlink" version="1.1" id="Capa_1" x="0px" y="0px" viewBox="0 0 512 512" style="enable-background:new 0 0 512 512;" xml:space="preserve" width="512px" height="512px">
<g>
	<g>
		<path d="M502,27h-59.47c-5.522,0-10,4.477-10,10v19.763H295.735V37c0-5.523-4.478-10-10-10h-59.471c-5.522,0-10,4.477-10,10    v19.763H79.47V37c0-5.523-4.478-10-10-10H10C4.478,27,0,31.477,0,37v59.525c0,5.523,4.478,10,10,10h19.735v217.141    c0,5.523,4.478,10,10,10c5.522,0,10-4.477,10-10V106.525H69.47c5.522,0,10-4.477,10-10V76.763h136.795v19.763    c0,5.523,4.478,10,10,10h59.471c5.522,0,10-4.477,10-10V76.763H432.53v19.763c0,5.523,4.478,10,10,10H502c5.522,0,10-4.477,10-10    V37C512,31.477,507.522,27,502,27z M59.47,86.525H20V47h39.47V86.525z M275.735,86.525h-39.471V47h39.471V86.525z M492,86.525    h-39.47V47H492V86.525z" fill="#880088"/>
	</g>
</g>
<g>
	<g>
		<path d="M502,405.475h-19.735V187c0-5.523-4.478-10-10-10c-5.522,0-10,4.477-10,10v218.475H442.53c-5.522,0-10,4.477-10,10v19.763    H295.735v-19.763c0-5.523-4.478-10-10-10h-59.471c-5.522,0-10,4.477-10,10v19.763H79.47v-19.763c0-5.523-4.478-10-10-10H10    c-5.522,0-10,4.477-10,10V475c0,5.523,4.478,10,10,10h59.47c5.522,0,10-4.477,10-10v-19.763h136.795V475c0,5.523,4.478,10,10,10    h59.471c5.522,0,10-4.477,10-10v-19.763H432.53V475c0,5.523,4.478,10,10,10H502c5.522,0,10-4.477,10-10v-59.525    C512,409.952,507.522,405.475,502,405.475z M59.47,465H20v-39.525h39.47V465z M275.735,465h-39.471v-39.525h39.471V465z M492,465    h-39.47v-39.525H492V465z" fill="#880088"/>
	</g>
</g>
<g>
	<g>
		<path d="M479.34,139.93c-1.87-1.86-4.45-2.93-7.07-2.93c-2.64,0-5.21,1.07-7.08,2.93c-1.859,1.86-2.93,4.44-2.93,7.07    s1.07,5.21,2.93,7.07s4.44,2.93,7.08,2.93c2.63,0,5.2-1.07,7.07-2.93c1.86-1.86,2.92-4.44,2.92-7.07S481.2,141.79,479.34,139.93z" fill="#880088"/>
	</g>
</g>
<g>
	<g>
		<path d="M46.81,359.26c-1.87-1.86-4.439-2.93-7.08-2.93c-2.63,0-5.21,1.07-7.069,2.93c-1.86,1.86-2.931,4.44-2.931,7.07    c0,2.64,1.07,5.21,2.931,7.07c1.859,1.87,4.439,2.93,7.069,2.93c2.64,0,5.209-1.06,7.08-2.93c1.86-1.86,2.931-4.44,2.931-7.07    S48.671,361.12,46.81,359.26z" fill="#880088"/>
	</g>
</g>
<g>
	<g>
		<path d="M185.983,186H87.75c-5.522,0-10,4.502-10,10.025v16.135c0,5.523,4.478,10,10,10c5.522,0,10-4.477,10-10V206h29.116v100    H111c-5.522,0-10,4.477-10,10s4.478,10,10,10h51.733c5.522,0,10-4.477,10-10s-4.478-10-10-10h-15.867V206h29.117v6.16    c0,5.523,4.478,10,10,10c5.522,0,10-4.477,10-10V196C195.983,190.477,191.505,186,185.983,186z" fill="#880088"/>
	</g>
</g>
<g>
	<g>
		<path d="M226.078,286.001h0.013h10.033c0.006,0,0.013-0.001,0.013-0.001h6.303c5.522,0,10-4.477,10-10s-4.478-10-10-10h-16.349    h-0.013c-5.509-0.007-9.988-4.49-9.988-10c0-5.514,4.486-10,10.001-10h16.349c5.522,0,10-4.477,10-10s-4.478-10-10-10h-16.349    c-16.543,0-30.001,13.458-30.001,30c0,7.678,2.902,14.688,7.663,20c-4.761,5.312-7.663,12.322-7.663,20    c0,16.542,13.458,30,30.001,30h16.349c5.522,0,10-4.477,10-10s-4.478-10-10-10h-16.349c-5.515,0-10.001-4.486-10.001-10    C216.09,290.49,220.569,286.008,226.078,286.001z" fill="#880088"/>
	</g>
</g>
<g>
	<g>
		<path d="M323.616,275.964l23.96-34.229c3.17-4.525,2.07-10.76-2.455-13.927c-4.523-3.166-10.76-2.067-13.927,2.458l-19.792,28.274    l-19.828-28.28c-3.171-4.522-9.405-5.618-13.93-2.447c-4.521,3.17-5.617,9.407-2.447,13.929l24.001,34.232l-24.005,34.292    c-3.167,4.524-2.066,10.76,2.458,13.927c1.745,1.222,3.745,1.809,5.726,1.809c3.153,0,6.256-1.487,8.201-4.267l19.836-28.337    l19.783,28.217c1.946,2.775,5.047,4.26,8.197,4.26c1.982,0,3.985-0.588,5.732-1.813c4.521-3.17,5.617-9.407,2.447-13.929    L323.616,275.964z" fill="#880088"/>
	</g>
</g>
<g>
	<g>
		<path d="M421,306c-7.72,0-14-6.28-14-14v-46h5.5c5.522,0,10-4.477,10-10s-4.478-10-10-10H407v-30c0-5.523-4.478-10-10-10    c-5.522,0-10,4.477-10,10v30h-5.5c-5.522,0-10,4.477-10,10s4.478,10,10,10h5.5v46c0,18.748,15.252,34,34,34    c5.522,0,10-4.477,10-10S426.522,306,421,306z" fill="#880088"/>
	</g>
</g>
<g>
</g>
<g>
</g>
<g>
</g>
<g>
</g>
<g>
</g>
<g>
</g>
<g>
</g>
<g>
</g>
<g>
</g>
<g>
</g>
<g>
</g>
<g>
</g>
<g>
</g>
<g>
</g>
<g>
</g>
</svg>
