<?xml version="1.0" encoding="iso-8859-1"?>
<!-- Generator: Adobe Illustrator 19.0.0, SVG Export Plug-In . SVG Version: 6.00 Build 0)  -->
<svg version="1.1" id="Capa_1" xmlns="http://www.w3.org/2000/svg" xmlns:xlink="http://www.w3.org/1999/xlink" x="0px" y="0px"
	 viewBox="0 0 512 512" style="enable-background:new 0 0 512 512;" xml:space="preserve">
<path style="fill:#BEEDFF;" d="M64.002,412.001H53.811c-24.195,0-43.807-19.614-43.807-43.807V249.127
	c0-24.195,19.614-44.122,43.807-44.122H458.19c24.195,0,43.807,19.929,43.807,44.122v119.066c0,24.195-19.614,43.807-43.807,43.807
	h-16.156H64.002V412.001z"/>
<path style="fill:#FBDEC1;" d="M457.997,502V385.91c0-9.953-8.068-18.021-18.021-18.021l0,0c-9.953,0-18.021,8.068-18.021,18.021
	v47.524V368.26c0-9.953-8.068-18.021-18.021-18.021l0,0c-9.953,0-18.021,8.068-18.021,18.021v65.174v-99.241
	c0-9.953-8.068-18.021-18.021-18.021l0,0c-9.953,0-18.021,8.068-18.021,18.021v99.241V368.26c0-9.953-8.068-18.021-18.021-18.021
	l0,0c-9.953,0-18.021,8.068-18.021,18.021v65.174h0.214v-3c0-19.906-16.137-36.043-36.043-36.043l0,0v68.912
	c0,14.05,4.751,27.688,13.481,38.696l0,0H457.997z"/>
<rect x="10" y="10" style="fill:#FCE3CA;" width="155.998" height="159.998"/>
<path d="M119.781,272.413c1.86-1.86,2.93-4.44,2.93-7.07s-1.07-5.21-2.93-7.07c-1.86-1.859-4.43-2.93-7.07-2.93
	c-2.63,0-5.21,1.07-7.07,2.93c-1.86,1.86-2.93,4.44-2.93,7.07s1.07,5.21,2.93,7.07c1.87,1.859,4.44,2.93,7.07,2.93
	C115.341,275.343,117.921,274.272,119.781,272.413z"/>
<path d="M179.134,265.344c0-5.522-4.477-10-10-10h-8.658c-5.523,0-10,4.478-10,10c0,5.522,4.477,10,10,10h8.658
	C174.657,275.344,179.134,270.866,179.134,265.344z"/>
<path d="M218.24,265.343c0-2.63-1.07-5.21-2.93-7.07c-1.86-1.859-4.44-2.93-7.07-2.93c-2.63,0-5.21,1.07-7.07,2.93
	c-1.86,1.86-2.93,4.44-2.93,7.07s1.07,5.21,2.93,7.07c1.86,1.859,4.44,2.93,7.07,2.93c2.63,0,5.2-1.07,7.07-2.93
	C217.17,270.553,218.24,267.973,218.24,265.343z"/>
<path d="M263.069,272.413c1.86-1.86,2.93-4.44,2.93-7.07s-1.07-5.21-2.93-7.07c-1.86-1.859-4.44-2.93-7.07-2.93
	c-2.63,0-5.21,1.07-7.07,2.93s-2.93,4.44-2.93,7.07s1.07,5.21,2.93,7.07c1.86,1.859,4.44,2.93,7.07,2.93
	C258.629,275.343,261.209,274.272,263.069,272.413z"/>
<path d="M303.759,275.343c2.63,0,5.21-1.07,7.07-2.93c1.87-1.86,2.93-4.44,2.93-7.07s-1.06-5.21-2.93-7.07
	c-1.86-1.859-4.44-2.93-7.07-2.93s-5.21,1.07-7.07,2.93c-1.86,1.86-2.93,4.44-2.93,7.07s1.07,5.21,2.93,7.07
	C298.549,274.272,301.129,275.343,303.759,275.343z"/>
<path d="M358.599,272.413c1.86-1.86,2.92-4.44,2.92-7.07s-1.06-5.21-2.92-7.07c-1.87-1.859-4.44-2.93-7.08-2.93
	c-2.63,0-5.21,1.07-7.07,2.93c-1.86,1.86-2.93,4.44-2.93,7.07s1.07,5.21,2.93,7.07c1.87,1.859,4.44,2.93,7.07,2.93
	C354.148,275.343,356.728,274.272,358.599,272.413z"/>
<path d="M406.357,272.413c1.86-1.86,2.93-4.44,2.93-7.07s-1.07-5.21-2.93-7.07c-1.86-1.859-4.44-2.93-7.07-2.93
	c-2.64,0-5.21,1.07-7.07,2.93s-2.93,4.44-2.93,7.07s1.07,5.21,2.93,7.07c1.86,1.859,4.44,2.93,7.07,2.93
	C401.917,275.343,404.497,274.272,406.357,272.413z"/>
<path d="M64.002,306.173c-5.523,0-10,4.478-10,10c0,5.522,4.477,10,10,10h7.897c5.523,0,10-4.478,10-10c0-5.522-4.477-10-10-10
	H64.002z"/>
<path d="M137.616,316.173c0-5.522-4.477-10-10-10h-7.896c-5.523,0-10,4.478-10,10c0,5.522,4.477,10,10,10h7.896
	C133.139,326.173,137.616,321.695,137.616,316.173z"/>
<path d="M167.611,326.173c2.64,0,5.21-1.07,7.08-2.93c1.86-1.86,2.92-4.44,2.92-7.07s-1.06-5.21-2.92-7.07
	c-1.87-1.859-4.44-2.93-7.08-2.93c-2.63,0-5.21,1.07-7.07,2.93c-1.86,1.86-2.92,4.44-2.92,7.07s1.06,5.21,2.92,7.07
	C162.401,325.102,164.981,326.173,167.611,326.173z"/>
<path d="M216,326.173c2.63,0,5.21-1.07,7.07-2.93s2.93-4.44,2.93-7.07s-1.07-5.21-2.93-7.07c-1.86-1.859-4.44-2.93-7.07-2.93
	c-2.63,0-5.21,1.07-7.07,2.93c-1.86,1.86-2.93,4.44-2.93,7.07s1.07,5.21,2.93,7.07C210.79,325.102,213.37,326.173,216,326.173z"/>
<path d="M113.971,357.262c-1.86,1.86-2.93,4.44-2.93,7.07c0,2.64,1.07,5.21,2.93,7.069c1.86,1.86,4.44,2.931,7.07,2.931
	c2.63,0,5.21-1.07,7.07-2.931c1.86-1.859,2.93-4.43,2.93-7.069c0-2.63-1.07-5.21-2.93-7.07c-1.86-1.86-4.44-2.93-7.07-2.93
	C118.411,354.332,115.831,355.401,113.971,357.262z"/>
<path d="M169.421,374.332c2.64,0,5.21-1.07,7.08-2.931c1.86-1.859,2.92-4.439,2.92-7.069c0-2.63-1.06-5.21-2.92-7.07
	c-1.87-1.86-4.44-2.93-7.08-2.93c-2.63,0-5.21,1.069-7.07,2.93c-1.86,1.86-2.92,4.44-2.92,7.07c0,2.64,1.06,5.21,2.92,7.069
	C164.211,373.262,166.791,374.332,169.421,374.332z"/>
<path d="M266.01,316.173c0,5.522,4.477,10,10,10h20.011c5.523,0,10-4.478,10-10c0-5.522-4.477-10-10-10H276.01
	C270.487,306.173,266.01,310.65,266.01,316.173z"/>
<path d="M223.667,374.335h54.332c5.523,0,10-4.478,10-10c0-5.522-4.477-10-10-10h-54.332c-5.523,0-10,4.478-10,10
	C213.667,369.857,218.144,374.335,223.667,374.335z"/>
<path d="M447.997,326.173c5.523,0,10-4.478,10-10c0-5.522-4.477-10-10-10h-8.021c-5.523,0-10,4.478-10,10c0,5.522,4.477,10,10,10
	H447.997z"/>
<path d="M203,74.006c2.63,0,5.21-1.07,7.07-2.931c1.86-1.859,2.93-4.439,2.93-7.069c0-2.63-1.07-5.21-2.93-7.07
	c-1.86-1.86-4.44-2.93-7.07-2.93s-5.21,1.069-7.07,2.93c-1.86,1.86-2.93,4.44-2.93,7.07s1.07,5.21,2.93,7.069
	C197.79,72.936,200.37,74.006,203,74.006z"/>
<path d="M458.189,195.004H265.94c0.038-0.353,0.059-0.71,0.059-1.073v-40.25c0-8.629,7.02-15.648,15.648-15.648h39.06
	c23.167,0,42.013-18.848,42.013-42.013s-18.847-42.013-42.013-42.013H241c-5.523,0-10,4.478-10,10s4.477,10,10,10h79.708
	c12.138,0,22.014,9.875,22.014,22.014s-9.875,22.014-22.014,22.014h-39.06c-19.657,0-35.648,15.992-35.648,35.648v40.25
	c0,0.363,0.022,0.72,0.059,1.073H53.811c-29.67,0-53.807,24.279-53.807,54.122v119.066c0,29.67,24.138,53.808,53.807,53.808h189.855
	c5.523,0,10-4.478,10-10c0-5.522-4.477-10-10-10H53.811c-18.642,0-33.808-15.166-33.808-33.809V249.127
	c0-18.815,15.167-34.123,33.808-34.123H458.19c18.642,0,33.808,15.308,33.808,34.123v119.066c0,15.232-10.127,28.139-24,32.353
	V385.91c0-15.451-12.57-28.021-28.021-28.021c-3.305,0-6.477,0.579-9.423,1.635c-3.68-11.185-14.219-19.285-26.619-19.285
	c-2.787,0-5.479,0.415-8.021,1.176v-7.222c0-15.45-12.57-28.021-28.021-28.021c-15.451,0-28.021,12.57-28.021,28.021v7.222
	c-2.543-0.761-5.234-1.176-8.021-1.176c-15.451,0-28.021,12.57-28.021,28.021v24.08c-7.37-5.013-16.263-7.948-25.829-7.948
	c-5.523,0-10,4.478-10,10v68.912c0,16.238,5.557,32.188,15.646,44.909c1.974,2.489,4.894,3.787,7.841,3.786
	c2.177,0,4.369-0.707,6.208-2.165c4.327-3.432,5.053-9.722,1.621-14.049c-7.297-9.202-11.316-20.737-11.316-32.482v-56.916
	c8.466,3.534,14.665,11.419,15.829,20.841v6.205c0,5.522,4.477,10,10,10c0.036,0,0.071-0.005,0.107-0.005
	c0.036,0,0.071,0.005,0.107,0.005c5.523,0,10-4.478,10-10v-3c0-1.481-0.077-2.943-0.214-4.389v-57.785
	c0-4.423,3.599-8.021,8.021-8.021s8.021,3.599,8.021,8.021v65.174c0,5.522,4.477,10,10,10c5.523,0,10-4.478,10-10v-65.174v-34.067
	c0-4.423,3.599-8.021,8.021-8.021s8.021,3.598,8.021,8.021v34.067v65.174c0,5.522,4.477,10,10,10c5.523,0,10-4.478,10-10v-65.174
	c0-4.423,3.599-8.021,8.021-8.021s8.021,3.599,8.021,8.021v65.174c0,5.522,4.477,10,10,10c5.523,0,10-4.478,10-10V385.91
	c0-4.423,3.599-8.021,8.021-8.021s8.021,3.599,8.021,8.021V502c0,5.522,4.477,10,10,10s10-4.478,10-10v-80.911
	c25-4.626,43.999-26.577,43.999-52.895V249.127C511.996,219.283,487.858,195.004,458.189,195.004z"/>
<path d="M10.003,179.998h155.998c5.523,0,10-4.478,10-10V10c0-5.522-4.477-10-10-10H10.003c-5.523,0-10,4.478-10,10v159.998
	C0.003,175.52,4.48,179.998,10.003,179.998z M20.003,20h135.998v139.998H20.003C20.003,159.998,20.003,20,20.003,20z"/>
<path d="M121.285,119.985H54.719c-5.523,0-10,4.478-10,10s4.477,10,10,10h66.566c5.523,0,10-4.478,10-10
	S126.808,119.985,121.285,119.985z"/>
<path d="M121.285,79.999H54.719c-5.523,0-10,4.478-10,10s4.477,10,10,10h66.566c5.523,0,10-4.478,10-10
	S126.808,79.999,121.285,79.999z"/>
<path d="M121.285,40.006H54.719c-5.523,0-10,4.478-10,10s4.477,10,10,10h66.566c5.523,0,10-4.478,10-10
	S126.808,40.006,121.285,40.006z"/>
<g>
</g>
<g>
</g>
<g>
</g>
<g>
</g>
<g>
</g>
<g>
</g>
<g>
</g>
<g>
</g>
<g>
</g>
<g>
</g>
<g>
</g>
<g>
</g>
<g>
</g>
<g>
</g>
<g>
</g>
</svg>
